<svg xmlns="http://www.w3.org/2000/svg" xmlns:xlink="http://www.w3.org/1999/xlink" width="2000" zoomAndPan="magnify" viewBox="248.37 277.62 928.97 944.59" height="2000" preserveAspectRatio="xMidYMid meet" version="1.0"><defs><g/><clipPath id="0217ad08ba"><path d="M 451 679 L 653 679 L 653 879.191406 L 451 879.191406 Z M 451 679 " clip-rule="nonzero"/></clipPath><clipPath id="94c79c9085"><path d="M 872 679 L 1073 679 L 1073 879.191406 L 872 879.191406 Z M 872 679 " clip-rule="nonzero"/></clipPath><clipPath id="0de1f12e85"><path d="M 621 494 L 1149.753906 494 L 1149.753906 767 L 621 767 Z M 621 494 " clip-rule="nonzero"/></clipPath><clipPath id="5596a0315e"><path d="M 347 373.691406 L 703 373.691406 L 703 662 L 347 662 Z M 347 373.691406 " clip-rule="nonzero"/></clipPath><clipPath id="e46599a003"><path d="M 272.253906 374 L 390 374 L 390 526 L 272.253906 526 Z M 272.253906 374 " clip-rule="nonzero"/></clipPath><clipPath id="6e57f82c87"><path d="M 350.050781 879.554688 L 1149.949219 879.554688 L 1149.949219 898.824219 L 350.050781 898.824219 Z M 350.050781 879.554688 " clip-rule="nonzero"/></clipPath><clipPath id="5bbfe9f3d6"><path d="M 0.0507812 0.554688 L 799.949219 0.554688 L 799.949219 19.824219 L 0.0507812 19.824219 Z M 0.0507812 0.554688 " clip-rule="nonzero"/></clipPath><clipPath id="1c53249c96"><rect x="0" width="800" y="0" height="20"/></clipPath><clipPath id="0d6d81e50f"><path d="M 1005.808594 301.621094 L 1149.949219 301.621094 L 1149.949219 445.761719 L 1005.808594 445.761719 Z M 1005.808594 301.621094 " clip-rule="nonzero"/></clipPath><clipPath id="c446d678e8"><path d="M 1077.878906 301.621094 C 1038.074219 301.621094 1005.808594 333.890625 1005.808594 373.691406 C 1005.808594 413.496094 1038.074219 445.761719 1077.878906 445.761719 C 1117.679688 445.761719 1149.949219 413.496094 1149.949219 373.691406 C 1149.949219 333.890625 1117.679688 301.621094 1077.878906 301.621094 Z M 1077.878906 301.621094 " clip-rule="nonzero"/></clipPath><clipPath id="f738fc4213"><path d="M 0.808594 0.621094 L 144.949219 0.621094 L 144.949219 144.761719 L 0.808594 144.761719 Z M 0.808594 0.621094 " clip-rule="nonzero"/></clipPath><clipPath id="d5c6a029a1"><path d="M 72.878906 0.621094 C 33.074219 0.621094 0.808594 32.890625 0.808594 72.691406 C 0.808594 112.496094 33.074219 144.761719 72.878906 144.761719 C 112.679688 144.761719 144.949219 112.496094 144.949219 72.691406 C 144.949219 32.890625 112.679688 0.621094 72.878906 0.621094 Z M 72.878906 0.621094 " clip-rule="nonzero"/></clipPath><clipPath id="d651955cc1"><rect x="0" width="145" y="0" height="145"/></clipPath><clipPath id="bcd942f92c"><rect x="0" width="829" y="0" height="265"/></clipPath><clipPath id="845ec8154a"><rect x="0" width="694" y="0" height="105"/></clipPath></defs><g clip-path="url(#0217ad08ba)"><path fill="#000000" d="M 552.046875 829.445312 C 524.371094 829.445312 501.933594 807.011719 501.933594 779.34375 C 501.933594 751.664062 524.371094 729.238281 552.046875 729.238281 C 579.707031 729.238281 602.148438 751.664062 602.148438 779.34375 C 602.148438 807.011719 579.707031 829.445312 552.046875 829.445312 Z M 552.046875 679.128906 C 496.6875 679.128906 451.824219 723.992188 451.824219 779.34375 C 451.824219 834.683594 496.6875 879.546875 552.046875 879.546875 C 607.382812 879.546875 652.246094 834.683594 652.246094 779.34375 C 652.246094 723.992188 607.382812 679.128906 552.046875 679.128906 " fill-opacity="1" fill-rule="nonzero"/></g><g clip-path="url(#94c79c9085)"><path fill="#000000" d="M 972.679688 829.445312 C 945 829.445312 922.566406 807.011719 922.566406 779.34375 C 922.566406 751.664062 945 729.238281 972.679688 729.238281 C 1000.316406 729.238281 1022.769531 751.664062 1022.769531 779.34375 C 1022.769531 807.011719 1000.316406 829.445312 972.679688 829.445312 Z M 972.679688 679.128906 C 917.316406 679.128906 872.457031 723.992188 872.457031 779.34375 C 872.457031 834.683594 917.316406 879.546875 972.679688 879.546875 C 1028.003906 879.546875 1072.859375 834.683594 1072.859375 779.34375 C 1072.859375 723.992188 1028.003906 679.128906 972.679688 679.128906 " fill-opacity="1" fill-rule="nonzero"/></g><path fill="#000000" d="M 482.085938 692.75 L 425.5625 679.128906 L 357.730469 615.773438 L 357.730469 717.53125 L 391.210938 766.964844 L 441.390625 766.964844 C 444.699219 737.050781 459.867188 710.71875 482.085938 692.75 " fill-opacity="1" fill-rule="nonzero"/><g clip-path="url(#0de1f12e85)"><path fill="#000000" d="M 1124.457031 679.128906 L 1105.035156 679.128906 L 1105.035156 630.886719 L 1124.457031 630.886719 Z M 862.273438 604.375 L 862.273438 519.019531 L 972.65625 517.636719 L 989.902344 604.375 Z M 1133.492188 692.75 L 1133.492188 618.511719 L 1008.203125 600.625 L 990.363281 494.808594 L 811.835938 494.808594 L 811.835938 582.980469 L 744.433594 692.75 L 621.992188 692.75 C 644.203125 710.71875 659.367188 737.050781 662.679688 766.964844 L 862.027344 766.964844 C 868.179688 711.304688 915.34375 668.003906 972.679688 668.003906 C 1029.96875 668.003906 1077.152344 711.304688 1083.296875 766.964844 L 1149.78125 765.597656 L 1149.78125 691.367188 L 1133.492188 692.75 " fill-opacity="1" fill-rule="nonzero"/></g><g clip-path="url(#5596a0315e)"><path fill="#000000" d="M 702.59375 466.71875 L 595.171875 373.699219 L 419.824219 374.414062 L 347.042969 547.113281 L 461.960938 661.5625 C 465.054688 661.5625 548.253906 660.453125 621.085938 660.097656 L 702.59375 466.71875 " fill-opacity="1" fill-rule="nonzero"/></g><g clip-path="url(#e46599a003)"><path fill="#000000" d="M 389.097656 374.550781 L 314.011719 374.847656 L 272.367188 472.757812 L 325.433594 525.59375 L 389.097656 374.550781 " fill-opacity="1" fill-rule="nonzero"/></g><path fill="#000000" d="M 725.070312 486.183594 L 651.789062 660.011719 C 694.308594 659.949219 727.625 660.289062 729.554688 661.484375 C 735.035156 664.886719 794.40625 546.226562 794.40625 546.226562 L 725.070312 486.183594 " fill-opacity="1" fill-rule="nonzero"/><g clip-path="url(#6e57f82c87)"><g transform="matrix(1, 0, 0, 1, 350, 879)"><g clip-path="url(#1c53249c96)"><g clip-path="url(#5bbfe9f3d6)"><path fill="#000000" d="M 0.0507812 0.554688 L 799.980469 0.554688 L 799.980469 19.824219 L 0.0507812 19.824219 Z M 0.0507812 0.554688 " fill-opacity="1" fill-rule="nonzero"/></g></g></g></g><g clip-path="url(#0d6d81e50f)"><g clip-path="url(#c446d678e8)"><g transform="matrix(1, 0, 0, 1, 1005, 301)"><g clip-path="url(#d651955cc1)"><g clip-path="url(#f738fc4213)"><g clip-path="url(#d5c6a029a1)"><path fill="#ffde59" d="M 0.808594 0.621094 L 144.949219 0.621094 L 144.949219 144.761719 L 0.808594 144.761719 Z M 0.808594 0.621094 " fill-opacity="1" fill-rule="nonzero"/></g></g></g></g></g></g><g transform="matrix(1, 0, 0, 1, 335, 882)"><g clip-path="url(#bcd942f92c)"><g fill="#000000" fill-opacity="1"><g transform="translate(3.807435, 207.328714)"><g><path d="M 46.984375 -17.546875 C 62.578125 -17.546875 70.375 -23.785156 70.375 -36.265625 C 70.375 -42.753906 66.929688 -47.5625 60.046875 -50.6875 C 56.398438 -52.5 51.6875 -54.1875 45.90625 -55.75 C 40.125 -57.3125 35.316406 -58.90625 31.484375 -60.53125 C 27.648438 -62.15625 23.785156 -64.394531 19.890625 -67.25 C 12.210938 -72.96875 8.375 -81.769531 8.375 -93.65625 C 8.375 -105.550781 12.5 -114.910156 20.75 -121.734375 C 29.007812 -128.554688 39.796875 -131.96875 53.109375 -131.96875 C 66.429688 -131.96875 78.8125 -129.304688 90.25 -123.984375 L 90.25 -94.734375 L 70.375 -93.375 L 70.375 -104.6875 C 70.375 -106.632812 70.113281 -108.0625 69.59375 -108.96875 C 68.164062 -111.4375 63.582031 -112.671875 55.84375 -112.671875 C 48.113281 -112.671875 42.394531 -111.304688 38.6875 -108.578125 C 34.988281 -105.847656 33.140625 -101.625 33.140625 -95.90625 C 33.140625 -91.75 34.695312 -88.113281 37.8125 -85 C 39.894531 -82.914062 42.984375 -81.191406 47.078125 -79.828125 C 51.171875 -78.460938 55.523438 -77.0625 60.140625 -75.625 C 64.753906 -74.195312 68.847656 -72.640625 72.421875 -70.953125 C 75.992188 -69.265625 79.726562 -66.925781 83.625 -63.9375 C 91.550781 -58.09375 95.515625 -49.0625 95.515625 -36.84375 C 95.515625 -24.625 91.128906 -15.003906 82.359375 -7.984375 C 73.585938 -0.972656 62.019531 2.53125 47.65625 2.53125 C 33.300781 2.53125 20.40625 -0.128906 8.96875 -5.453125 L 8.96875 -36.265625 L 28.84375 -37.625 L 28.84375 -25.734375 C 28.84375 -23.785156 29.101562 -22.351562 29.625 -21.4375 C 30.144531 -20.53125 31.738281 -19.65625 34.40625 -18.8125 C 37.070312 -17.96875 41.265625 -17.546875 46.984375 -17.546875 Z M 46.984375 -17.546875 "/></g></g></g><g fill="#000000" fill-opacity="1"><g transform="translate(105.548608, 207.328714)"><g><path d="M 13.25 -21.828125 L 44.640625 -112.671875 L 32.359375 -113.84375 L 32.359375 -129.640625 L 77 -129.640625 L 116.765625 -17.15625 L 116.96875 -17.15625 L 128.078125 -16.5625 L 128.078125 0 L 77.78125 0 L 77.78125 -15.796875 L 85.1875 -16.375 C 87.394531 -16.632812 88.890625 -17.15625 89.671875 -17.9375 C 90.453125 -18.71875 90.515625 -20.144531 89.859375 -22.21875 L 85.765625 -34.3125 L 40.15625 -34.3125 L 34.3125 -17.15625 L 46 -16.5625 L 46 0 L 0.96875 0 L 0.96875 -15.796875 L 7.40625 -16.375 C 10.132812 -16.632812 12.082031 -18.453125 13.25 -21.828125 Z M 62.96875 -107.796875 L 44.828125 -52.25 L 81.09375 -52.25 L 63.546875 -107.796875 Z M 62.96875 -107.796875 "/></g></g></g><g fill="#000000" fill-opacity="1"><g transform="translate(234.576703, 207.328714)"><g><path d="M 98.828125 0 L 6.234375 0 L 6.234375 -15.796875 L 12.671875 -16.375 C 16.441406 -16.757812 18.328125 -18.578125 18.328125 -21.828125 L 18.328125 -112.484375 L 7.21875 -113.0625 L 7.21875 -129.640625 L 54.1875 -129.640625 L 54.1875 -113.84375 L 47.765625 -113.265625 C 43.992188 -112.867188 42.109375 -110.785156 42.109375 -107.015625 L 42.109375 -20.078125 L 74.46875 -20.078125 C 76.28125 -20.078125 77.476562 -20.5625 78.0625 -21.53125 C 78.65625 -22.507812 78.953125 -24.101562 78.953125 -26.3125 L 78.953125 -39.96875 L 98.828125 -38.59375 Z M 98.828125 0 "/></g></g></g><g fill="#000000" fill-opacity="1"><g transform="translate(339.241474, 207.328714)"><g><path d="M 6.625 0 L 6.625 -15.796875 L 13.0625 -16.375 C 16.832031 -16.757812 18.71875 -18.578125 18.71875 -21.828125 L 18.71875 -112.484375 L 7.609375 -113.0625 L 7.609375 -129.640625 L 101.75 -129.640625 L 101.75 -97.28125 L 81.875 -95.90625 L 81.875 -103.703125 C 81.875 -105.910156 81.546875 -107.46875 80.890625 -108.375 C 80.242188 -109.289062 78.6875 -109.75 76.21875 -109.75 L 42.5 -109.75 L 42.5 -75.25 L 90.453125 -75.25 L 90.453125 -55.359375 L 42.5 -55.359375 L 42.5 -17.15625 L 59.84375 -16.5625 L 59.84375 0 Z M 6.625 0 "/></g></g></g><g fill="#000000" fill-opacity="1"><g transform="translate(445.075693, 207.328714)"><g><path d="M 67.34375 -131.96875 C 82.75 -131.96875 95.648438 -126.507812 106.046875 -115.59375 C 116.441406 -104.675781 121.640625 -88.007812 121.640625 -65.59375 C 121.640625 -43.175781 116.472656 -26.21875 106.140625 -14.71875 C 95.804688 -3.21875 81.832031 2.53125 64.21875 2.53125 C 46.613281 2.53125 32.804688 -3.1875 22.796875 -14.625 C 12.796875 -26.0625 7.796875 -42.695312 7.796875 -64.53125 C 7.796875 -76.476562 9.550781 -86.96875 13.0625 -96 C 16.570312 -105.039062 21.1875 -112.03125 26.90625 -116.96875 C 38.46875 -126.96875 51.945312 -131.96875 67.34375 -131.96875 Z M 32.171875 -65.5 C 32.171875 -33.269531 43.34375 -17.15625 65.6875 -17.15625 C 77.644531 -17.15625 86.03125 -22.09375 90.84375 -31.96875 C 95.257812 -40.675781 97.46875 -51.332031 97.46875 -63.9375 C 97.46875 -75.25 95.519531 -85.644531 91.625 -95.125 C 89.414062 -100.320312 86.066406 -104.414062 81.578125 -107.40625 C 77.097656 -110.394531 71.28125 -111.890625 64.125 -111.890625 C 56.976562 -111.890625 50.835938 -109.550781 45.703125 -104.875 C 40.578125 -100.195312 37.039062 -94.539062 35.09375 -87.90625 C 33.144531 -81.28125 32.171875 -73.8125 32.171875 -65.5 Z M 32.171875 -65.5 "/></g></g></g><g fill="#000000" fill-opacity="1"><g transform="translate(574.493573, 207.328714)"><g><path d="M 6.234375 0 L 6.234375 -15.796875 L 12.671875 -16.375 C 16.441406 -16.757812 18.328125 -18.578125 18.328125 -21.828125 L 18.328125 -112.484375 L 7.21875 -113.0625 L 7.21875 -129.640625 L 60.4375 -129.640625 C 75.507812 -129.640625 87.070312 -126.84375 95.125 -121.25 C 103.1875 -115.664062 107.21875 -106.503906 107.21875 -93.765625 C 107.21875 -84.929688 104.910156 -77.65625 100.296875 -71.9375 C 95.679688 -66.21875 90.191406 -62.054688 83.828125 -59.453125 C 88.503906 -57.765625 92.207031 -53.800781 94.9375 -47.5625 L 108.96875 -16.953125 L 120.078125 -16.5625 L 120.078125 0 L 71.9375 0 L 71.9375 -15.796875 L 77.578125 -16.375 C 80.566406 -16.757812 82.0625 -17.929688 82.0625 -19.890625 C 82.0625 -20.660156 81.800781 -21.566406 81.28125 -22.609375 L 72.125 -42.109375 C 70.695312 -45.359375 69.101562 -47.664062 67.34375 -49.03125 C 65.59375 -50.394531 63.09375 -51.078125 59.84375 -51.078125 L 42.109375 -51.078125 L 42.109375 -17.15625 L 54.78125 -16.5625 L 54.78125 0 Z M 42.109375 -69.59375 L 59.0625 -69.59375 C 75.050781 -69.59375 83.046875 -76.738281 83.046875 -91.03125 C 83.046875 -99.21875 80.929688 -104.546875 76.703125 -107.015625 C 72.484375 -109.484375 65.695312 -110.71875 56.34375 -110.71875 L 42.109375 -110.71875 Z M 42.109375 -69.59375 "/></g></g></g><g fill="#000000" fill-opacity="1"><g transform="translate(696.505021, 207.328714)"><g><path d="M 6.625 0 L 6.625 -15.796875 L 13.0625 -16.375 C 16.832031 -16.757812 18.71875 -18.578125 18.71875 -21.828125 L 18.71875 -112.484375 L 7.609375 -113.0625 L 7.609375 -129.640625 L 61.015625 -129.640625 C 80.117188 -129.640625 95.03125 -124.566406 105.75 -114.421875 C 116.46875 -104.285156 121.828125 -89.273438 121.828125 -69.390625 C 121.828125 -57.046875 120.203125 -46.289062 116.953125 -37.125 C 113.710938 -27.96875 109.296875 -20.789062 103.703125 -15.59375 C 92.523438 -5.195312 78.617188 0 61.984375 0 Z M 42.5 -110.71875 L 42.5 -18.71875 L 62.375 -18.71875 C 73.550781 -18.71875 82.257812 -22.742188 88.5 -30.796875 C 94.738281 -38.859375 97.859375 -50.554688 97.859375 -65.890625 C 97.859375 -95.773438 85.1875 -110.71875 59.84375 -110.71875 Z M 42.5 -110.71875 "/></g></g></g></g></g><g transform="matrix(1, 0, 0, 1, 403, 1100)"><g clip-path="url(#845ec8154a)"><g fill="#000000" fill-opacity="1"><g transform="translate(2.14267, 81.66542)"><g/></g></g><g fill="#000000" fill-opacity="1"><g transform="translate(17.616889, 81.66542)"><g><path d="M 2.46875 0 L 2.46875 -6.265625 L 5.03125 -6.5 C 6.519531 -6.644531 7.265625 -7.363281 7.265625 -8.65625 L 7.265625 -44.609375 L 2.859375 -44.84375 L 2.859375 -51.40625 L 23.96875 -51.40625 C 29.945312 -51.40625 34.53125 -50.296875 37.71875 -48.078125 C 40.914062 -45.867188 42.515625 -42.238281 42.515625 -37.1875 C 42.515625 -33.6875 41.597656 -30.800781 39.765625 -28.53125 C 37.941406 -26.257812 35.769531 -24.609375 33.25 -23.578125 C 35.101562 -22.910156 36.570312 -21.335938 37.65625 -18.859375 L 43.21875 -6.71875 L 47.625 -6.578125 L 47.625 0 L 28.53125 0 L 28.53125 -6.265625 L 30.765625 -6.5 C 31.953125 -6.644531 32.546875 -7.109375 32.546875 -7.890625 C 32.546875 -8.191406 32.441406 -8.550781 32.234375 -8.96875 L 28.609375 -16.703125 C 28.035156 -17.984375 27.398438 -18.894531 26.703125 -19.4375 C 26.015625 -19.976562 25.023438 -20.25 23.734375 -20.25 L 16.703125 -20.25 L 16.703125 -6.796875 L 21.71875 -6.578125 L 21.71875 0 Z M 16.703125 -27.59375 L 23.421875 -27.59375 C 29.765625 -27.59375 32.9375 -30.429688 32.9375 -36.109375 C 32.9375 -39.347656 32.097656 -41.457031 30.421875 -42.4375 C 28.742188 -43.414062 26.050781 -43.90625 22.34375 -43.90625 L 16.703125 -43.90625 Z M 16.703125 -27.59375 "/></g></g></g><g fill="#000000" fill-opacity="1"><g transform="translate(66.006332, 81.66542)"><g><path d="M 21.953125 -40.046875 C 25.816406 -40.046875 28.882812 -39.101562 31.15625 -37.21875 C 33.425781 -35.34375 34.5625 -32.703125 34.5625 -29.296875 C 34.5625 -27.035156 34.070312 -25.039062 33.09375 -23.3125 C 32.113281 -21.582031 30.898438 -20.226562 29.453125 -19.25 C 28.015625 -18.269531 26.265625 -17.472656 24.203125 -16.859375 C 20.742188 -15.828125 16.851562 -15.3125 12.53125 -15.3125 C 12.675781 -12.570312 13.519531 -10.363281 15.0625 -8.6875 C 16.613281 -7.019531 18.988281 -6.1875 22.1875 -6.1875 C 25.382812 -6.1875 28.582031 -7.320312 31.78125 -9.59375 L 34.71875 -3.328125 C 33.6875 -2.398438 31.945312 -1.445312 29.5 -0.46875 C 27.050781 0.507812 24.253906 1 21.109375 1 C 14.816406 1 10.203125 -0.738281 7.265625 -4.21875 C 4.328125 -7.695312 2.859375 -12.472656 2.859375 -18.546875 C 2.859375 -24.628906 4.53125 -29.734375 7.875 -33.859375 C 11.226562 -37.984375 15.921875 -40.046875 21.953125 -40.046875 Z M 18.4375 -22.375 C 20.320312 -22.71875 22.0625 -23.46875 23.65625 -24.625 C 25.25 -25.78125 26.046875 -27.160156 26.046875 -28.765625 C 26.046875 -31.898438 24.503906 -33.46875 21.421875 -33.46875 C 18.535156 -33.46875 16.316406 -32.320312 14.765625 -30.03125 C 13.222656 -27.738281 12.375 -24.992188 12.21875 -21.796875 C 14.476562 -21.847656 16.550781 -22.039062 18.4375 -22.375 Z M 18.4375 -22.375 "/></g></g></g><g fill="#000000" fill-opacity="1"><g transform="translate(103.419269, 81.66542)"><g><path d="M 37.265625 -37.34375 L 37.265625 -8.578125 C 37.265625 -7.753906 37.40625 -7.1875 37.6875 -6.875 C 37.96875 -6.570312 38.472656 -6.394531 39.203125 -6.34375 L 41.671875 -6.1875 L 41.671875 0 L 29.375 0 L 29.375 -4.484375 L 29.140625 -4.5625 C 26.566406 -0.851562 23.039062 1 18.5625 1 C 13.300781 1 9.40625 -0.671875 6.875 -4.015625 C 4.351562 -7.367188 3.09375 -11.957031 3.09375 -17.78125 C 3.09375 -24.789062 4.789062 -30.253906 8.1875 -34.171875 C 11.59375 -38.085938 16.695312 -40.046875 23.5 -40.046875 C 27.882812 -40.046875 32.472656 -39.144531 37.265625 -37.34375 Z M 28.296875 -12.296875 L 28.296875 -32.3125 C 26.847656 -32.988281 24.863281 -33.328125 22.34375 -33.328125 C 18.882812 -33.328125 16.382812 -31.929688 14.84375 -29.140625 C 13.300781 -26.359375 12.53125 -22.675781 12.53125 -18.09375 C 12.53125 -9.738281 15.207031 -5.5625 20.5625 -5.5625 C 22.832031 -5.5625 24.6875 -6.242188 26.125 -7.609375 C 27.570312 -8.972656 28.296875 -10.535156 28.296875 -12.296875 Z M 28.296875 -12.296875 "/></g></g></g><g fill="#000000" fill-opacity="1"><g transform="translate(147.248057, 81.66542)"><g><path d="M 21.953125 -40.046875 C 24.171875 -40.046875 26.285156 -39.738281 28.296875 -39.125 L 28.296875 -46.921875 C 28.296875 -48.054688 27.625 -48.675781 26.28125 -48.78125 L 22.96875 -49.015625 L 22.96875 -55.125 L 37.34375 -55.125 L 37.34375 -8.125 C 37.394531 -6.9375 38.039062 -6.34375 39.28125 -6.34375 L 41.984375 -6.1875 L 41.984375 0 L 29.453125 0 L 29.453125 -4.5625 L 29.21875 -4.640625 C 26.90625 -0.878906 23.398438 1 18.703125 1 C 12.828125 1 8.707031 -0.957031 6.34375 -4.875 C 4.175781 -8.425781 3.09375 -12.78125 3.09375 -17.9375 C 3.09375 -24.632812 4.753906 -29.992188 8.078125 -34.015625 C 11.398438 -38.035156 16.023438 -40.046875 21.953125 -40.046875 Z M 28.296875 -12.0625 L 28.296875 -32.078125 C 26.441406 -32.910156 24.484375 -33.328125 22.421875 -33.328125 C 19.015625 -33.328125 16.523438 -31.957031 14.953125 -29.21875 C 13.390625 -26.488281 12.609375 -23.007812 12.609375 -18.78125 C 12.609375 -10.125 15.390625 -5.796875 20.953125 -5.796875 C 23.066406 -5.796875 24.816406 -6.398438 26.203125 -7.609375 C 27.597656 -8.828125 28.296875 -10.3125 28.296875 -12.0625 Z M 28.296875 -12.0625 "/></g></g></g><g fill="#000000" fill-opacity="1"><g transform="translate(191.154152, 81.66542)"><g><path d="M 31 -1.46875 L 31 -7.34375 C 28.164062 -3.320312 23.992188 -1.3125 18.484375 -1.3125 C 10.492188 -1.3125 6.5 -5.769531 6.5 -14.6875 L 6.5 -30.234375 C 6.5 -31.617188 5.851562 -32.335938 4.5625 -32.390625 L 2.09375 -32.546875 L 2.09375 -38.890625 L 15.6875 -38.890625 L 15.6875 -16.703125 C 15.6875 -13.972656 16.070312 -11.910156 16.84375 -10.515625 C 17.625 -9.117188 19.222656 -8.421875 21.640625 -8.421875 C 24.066406 -8.421875 26.015625 -9.164062 27.484375 -10.65625 C 28.953125 -12.15625 29.6875 -13.960938 29.6875 -16.078125 L 29.6875 -30.078125 C 29.6875 -30.953125 29.546875 -31.554688 29.265625 -31.890625 C 28.984375 -32.222656 28.476562 -32.390625 27.75 -32.390625 L 25.28125 -32.546875 L 25.28125 -38.890625 L 38.890625 -38.890625 L 38.890625 -1.46875 C 38.890625 4.769531 37.378906 9.332031 34.359375 12.21875 C 31.347656 15.101562 26.785156 16.546875 20.671875 16.546875 C 14.566406 16.546875 9.816406 15.695312 6.421875 14 L 6.421875 3.25 L 13.765625 2.625 L 13.765625 6.34375 C 13.765625 7.726562 14.40625 8.664062 15.6875 9.15625 C 16.976562 9.644531 18.757812 9.890625 21.03125 9.890625 C 27.675781 9.890625 31 6.101562 31 -1.46875 Z M 31 -1.46875 "/></g></g></g><g fill="#000000" fill-opacity="1"><g transform="translate(235.446734, 81.66542)"><g><path d="M 2.09375 -32.625 L 2.09375 -38.890625 L 15.15625 -38.890625 L 15.15625 -33.859375 C 18.039062 -37.984375 21.992188 -40.046875 27.015625 -40.046875 C 32.046875 -40.046875 35.4375 -37.984375 37.1875 -33.859375 C 40.070312 -37.984375 43.988281 -40.046875 48.9375 -40.046875 C 52.644531 -40.046875 55.503906 -38.925781 57.515625 -36.6875 C 59.523438 -34.445312 60.53125 -31.082031 60.53125 -26.59375 L 60.53125 -6.421875 L 64.9375 -6.1875 L 64.9375 0 L 46.546875 0 L 46.546875 -5.875 L 49.09375 -6.109375 C 49.863281 -6.210938 50.414062 -6.429688 50.75 -6.765625 C 51.09375 -7.097656 51.285156 -7.703125 51.328125 -8.578125 L 51.328125 -24.578125 C 51.328125 -27.421875 51.003906 -29.523438 50.359375 -30.890625 C 49.722656 -32.253906 48.21875 -32.9375 45.84375 -32.9375 C 43.476562 -32.9375 41.660156 -32.210938 40.390625 -30.765625 C 39.128906 -29.328125 38.5 -27.394531 38.5 -24.96875 L 38.5 -6.421875 L 42.75 -6.1875 L 42.75 0 L 24.515625 0 L 24.515625 -5.875 L 27.0625 -6.109375 C 27.832031 -6.210938 28.394531 -6.429688 28.75 -6.765625 C 29.113281 -7.097656 29.296875 -7.726562 29.296875 -8.65625 L 29.296875 -24.578125 C 29.296875 -27.421875 28.972656 -29.523438 28.328125 -30.890625 C 27.691406 -32.253906 26.171875 -32.9375 23.765625 -32.9375 C 21.367188 -32.9375 19.550781 -32.1875 18.3125 -30.6875 C 17.082031 -29.195312 16.46875 -27.34375 16.46875 -25.125 L 16.46875 -6.421875 L 20.640625 -6.1875 L 20.640625 0 L 2.390625 0 L 2.390625 -5.875 L 4.953125 -6.109375 C 5.722656 -6.210938 6.285156 -6.429688 6.640625 -6.765625 C 7.003906 -7.097656 7.1875 -7.726562 7.1875 -8.65625 L 7.265625 -8.65625 L 7.265625 -30 C 7.265625 -30.875 7.125 -31.476562 6.84375 -31.8125 C 6.5625 -32.144531 6.054688 -32.335938 5.328125 -32.390625 Z M 2.09375 -32.625 "/></g></g></g><g fill="#000000" fill-opacity="1"><g transform="translate(302.388044, 81.66542)"><g><path d="M 16.546875 -38.890625 L 16.546875 -6.421875 L 20.953125 -6.1875 L 20.953125 0 L 2.546875 0 L 2.546875 -5.875 L 5.109375 -6.109375 C 6.597656 -6.265625 7.34375 -7.085938 7.34375 -8.578125 L 7.34375 -30.078125 C 7.34375 -30.953125 7.203125 -31.539062 6.921875 -31.84375 C 6.640625 -32.15625 6.132812 -32.3125 5.40625 -32.3125 L 2.703125 -32.46875 L 2.703125 -38.890625 Z M 6.796875 -45.5625 C 5.722656 -46.625 5.1875 -47.976562 5.1875 -49.625 C 5.1875 -51.28125 5.722656 -52.660156 6.796875 -53.765625 C 7.878906 -54.878906 9.296875 -55.4375 11.046875 -55.4375 C 12.804688 -55.4375 14.238281 -54.878906 15.34375 -53.765625 C 16.457031 -52.660156 17.015625 -51.28125 17.015625 -49.625 C 17.015625 -47.976562 16.457031 -46.625 15.34375 -45.5625 C 14.238281 -44.507812 12.804688 -43.984375 11.046875 -43.984375 C 9.296875 -43.984375 7.878906 -44.507812 6.796875 -45.5625 Z M 6.796875 -45.5625 "/></g></g></g><g fill="#000000" fill-opacity="1"><g transform="translate(325.268691, 81.66542)"><g><path d="M 24.65625 -8.1875 L 19.953125 -14.375 L 13.53125 -6.421875 L 17.15625 -6.1875 L 17.15625 0 L 1.078125 0 L 1.078125 -6.109375 L 3.484375 -6.34375 C 4.660156 -6.5 5.691406 -7.113281 6.578125 -8.1875 L 15.46875 -19.328125 L 5.953125 -32.46875 L 2.015625 -32.9375 L 2.015625 -38.890625 L 20.03125 -38.890625 L 20.03125 -32.78125 L 17.78125 -32.625 C 17.164062 -32.570312 16.765625 -32.335938 16.578125 -31.921875 C 16.398438 -31.515625 16.492188 -31.078125 16.859375 -30.609375 L 21.265625 -24.734375 L 27.21875 -32.46875 L 24.046875 -32.703125 L 24.046875 -38.890625 L 39.734375 -38.890625 L 39.734375 -32.859375 L 37.421875 -32.703125 C 36.335938 -32.648438 35.304688 -32.003906 34.328125 -30.765625 L 25.828125 -20.03125 L 35.953125 -6.578125 L 39.890625 -6.109375 L 39.890625 0 L 21.5 0 L 21.5 -6.109375 L 23.890625 -6.265625 C 24.554688 -6.316406 24.953125 -6.535156 25.078125 -6.921875 C 25.210938 -7.304688 25.070312 -7.726562 24.65625 -8.1875 Z M 24.65625 -8.1875 "/></g></g></g><g fill="#000000" fill-opacity="1"><g transform="translate(366.546591, 81.66542)"><g/></g></g><g fill="#000000" fill-opacity="1"><g transform="translate(382.006491, 81.66542)"><g><path d="M 33.703125 -43.21875 C 33.140625 -44.195312 31.03125 -44.6875 27.375 -44.6875 C 22.570312 -44.6875 18.929688 -43.0625 16.453125 -39.8125 C 13.984375 -36.5625 12.75 -31.875 12.75 -25.75 C 12.75 -13.019531 17.519531 -6.65625 27.0625 -6.65625 C 27.21875 -6.65625 27.898438 -6.65625 29.109375 -6.65625 C 30.316406 -6.65625 31.460938 -6.820312 32.546875 -7.15625 C 33.628906 -7.488281 34.273438 -7.832031 34.484375 -8.1875 C 34.691406 -8.550781 34.796875 -9.117188 34.796875 -9.890625 L 34.796875 -16.078125 L 42.671875 -15.546875 L 42.671875 -2.171875 C 38.648438 -0.0546875 33.550781 1 27.375 1 C 19.488281 1 13.46875 -1.210938 9.3125 -5.640625 C 5.164062 -10.078125 3.09375 -16.675781 3.09375 -25.4375 C 3.09375 -30.28125 3.785156 -34.503906 5.171875 -38.109375 C 6.566406 -41.722656 8.453125 -44.535156 10.828125 -46.546875 C 15.460938 -50.410156 20.976562 -52.34375 27.375 -52.34375 C 32.519531 -52.34375 37.363281 -51.285156 41.90625 -49.171875 L 41.90625 -36.03125 L 34.015625 -35.484375 L 34.015625 -41.515625 C 34.015625 -42.285156 33.910156 -42.851562 33.703125 -43.21875 Z M 33.703125 -43.21875 "/></g></g></g><g fill="#000000" fill-opacity="1"><g transform="translate(428.54076, 81.66542)"><g><path d="M 20.328125 -5.640625 C 25.953125 -5.640625 28.765625 -10.175781 28.765625 -19.25 C 28.765625 -23.832031 28.128906 -27.3125 26.859375 -29.6875 C 25.597656 -32.0625 23.484375 -33.25 20.515625 -33.25 C 17.554688 -33.25 15.378906 -32.113281 13.984375 -29.84375 C 12.597656 -27.570312 11.90625 -24.476562 11.90625 -20.5625 C 11.90625 -13.289062 13.242188 -8.726562 15.921875 -6.875 C 17.109375 -6.050781 18.578125 -5.640625 20.328125 -5.640625 Z M 2.546875 -19.484375 C 2.546875 -23.296875 3.113281 -26.601562 4.25 -29.40625 C 5.382812 -32.21875 6.90625 -34.375 8.8125 -35.875 C 12.46875 -38.65625 16.515625 -40.046875 20.953125 -40.046875 C 24.046875 -40.046875 26.660156 -39.539062 28.796875 -38.53125 C 30.929688 -37.53125 32.601562 -36.375 33.8125 -35.0625 C 35.03125 -33.75 36.0625 -31.84375 36.90625 -29.34375 C 37.757812 -26.84375 38.1875 -23.890625 38.1875 -20.484375 C 38.1875 -13.367188 36.457031 -7.984375 33 -4.328125 C 29.550781 -0.671875 25.132812 1.15625 19.75 1.15625 C 14.363281 1.15625 10.148438 -0.582031 7.109375 -4.0625 C 4.066406 -7.539062 2.546875 -12.679688 2.546875 -19.484375 Z M 2.546875 -19.484375 "/></g></g></g><g fill="#000000" fill-opacity="1"><g transform="translate(469.354889, 81.66542)"><g><path d="M 2.09375 -32.703125 L 2.09375 -38.890625 L 15.15625 -38.890625 L 15.15625 -33.859375 C 16.488281 -35.765625 18.265625 -37.269531 20.484375 -38.375 C 22.703125 -39.488281 25.097656 -40.046875 27.671875 -40.046875 C 31.585938 -40.046875 34.613281 -38.925781 36.75 -36.6875 C 38.894531 -34.445312 39.96875 -31.082031 39.96875 -26.59375 L 39.96875 -6.421875 L 44.375 -6.1875 L 44.375 0 L 25.984375 0 L 25.984375 -5.875 L 28.53125 -6.109375 C 29.300781 -6.210938 29.863281 -6.429688 30.21875 -6.765625 C 30.582031 -7.097656 30.765625 -7.726562 30.765625 -8.65625 L 30.765625 -24.578125 C 30.765625 -27.421875 30.328125 -29.523438 29.453125 -30.890625 C 28.578125 -32.253906 26.914062 -32.9375 24.46875 -32.9375 C 22.019531 -32.9375 20.070312 -32.160156 18.625 -30.609375 C 17.1875 -29.066406 16.46875 -27.238281 16.46875 -25.125 L 16.46875 -6.421875 L 20.875 -6.1875 L 20.875 0 L 2.46875 0 L 2.46875 -5.875 L 5.03125 -6.109375 C 5.800781 -6.210938 6.363281 -6.429688 6.71875 -6.765625 C 7.082031 -7.097656 7.265625 -7.726562 7.265625 -8.65625 L 7.265625 -30.078125 C 7.265625 -31.617188 6.617188 -32.414062 5.328125 -32.46875 Z M 2.09375 -32.703125 "/></g></g></g><g fill="#000000" fill-opacity="1"><g transform="translate(515.734543, 81.66542)"><g><path d="M 11.90625 -19.875 C 11.90625 -15.488281 12.726562 -12.082031 14.375 -9.65625 C 16.03125 -7.238281 18.414062 -6.03125 21.53125 -6.03125 C 24.644531 -6.03125 27.722656 -7.140625 30.765625 -9.359375 L 34.09375 -3.40625 C 30.4375 -0.414062 25.847656 1.078125 20.328125 1.078125 C 14.816406 1.078125 10.472656 -0.660156 7.296875 -4.140625 C 4.128906 -7.617188 2.546875 -12.757812 2.546875 -19.5625 C 2.546875 -26.363281 4.363281 -31.476562 8 -34.90625 C 11.632812 -38.332031 15.734375 -40.046875 20.296875 -40.046875 C 24.859375 -40.046875 29.097656 -38.988281 33.015625 -36.875 L 33.015625 -26.828125 L 25.90625 -26.28125 L 25.90625 -30 C 25.90625 -31.382812 25.398438 -32.242188 24.390625 -32.578125 C 23.390625 -32.921875 22.347656 -33.09375 21.265625 -33.09375 C 15.023438 -33.09375 11.90625 -28.6875 11.90625 -19.875 Z M 11.90625 -19.875 "/></g></g></g><g fill="#000000" fill-opacity="1"><g transform="translate(552.142585, 81.66542)"><g><path d="M 7.34375 -8.65625 L 7.34375 -30.078125 C 7.34375 -30.898438 7.203125 -31.476562 6.921875 -31.8125 C 6.640625 -32.144531 6.132812 -32.335938 5.40625 -32.390625 L 2.171875 -32.625 L 2.171875 -38.890625 L 15.234375 -38.890625 L 15.234375 -33.09375 C 16.160156 -35.101562 17.601562 -36.765625 19.5625 -38.078125 C 21.519531 -39.390625 23.773438 -40.046875 26.328125 -40.046875 C 28.878906 -40.046875 31.3125 -39.476562 33.625 -38.34375 L 33.625 -26.828125 L 26.4375 -26.28125 L 26.4375 -29.84375 C 26.4375 -30.875 26.179688 -31.519531 25.671875 -31.78125 C 25.097656 -32.03125 24.398438 -32.15625 23.578125 -32.15625 C 21.515625 -32.15625 19.828125 -31.421875 18.515625 -29.953125 C 17.203125 -28.484375 16.546875 -26.617188 16.546875 -24.359375 L 16.546875 -6.421875 L 23.265625 -6.109375 L 23.265625 0 L 2.546875 0 L 2.546875 -5.875 L 5.109375 -6.109375 C 5.878906 -6.210938 6.441406 -6.429688 6.796875 -6.765625 C 7.160156 -7.097656 7.34375 -7.726562 7.34375 -8.65625 Z M 7.34375 -8.65625 "/></g></g></g><g fill="#000000" fill-opacity="1"><g transform="translate(587.854937, 81.66542)"><g><path d="M 21.953125 -40.046875 C 25.816406 -40.046875 28.882812 -39.101562 31.15625 -37.21875 C 33.425781 -35.34375 34.5625 -32.703125 34.5625 -29.296875 C 34.5625 -27.035156 34.070312 -25.039062 33.09375 -23.3125 C 32.113281 -21.582031 30.898438 -20.226562 29.453125 -19.25 C 28.015625 -18.269531 26.265625 -17.472656 24.203125 -16.859375 C 20.742188 -15.828125 16.851562 -15.3125 12.53125 -15.3125 C 12.675781 -12.570312 13.519531 -10.363281 15.0625 -8.6875 C 16.613281 -7.019531 18.988281 -6.1875 22.1875 -6.1875 C 25.382812 -6.1875 28.582031 -7.320312 31.78125 -9.59375 L 34.71875 -3.328125 C 33.6875 -2.398438 31.945312 -1.445312 29.5 -0.46875 C 27.050781 0.507812 24.253906 1 21.109375 1 C 14.816406 1 10.203125 -0.738281 7.265625 -4.21875 C 4.328125 -7.695312 2.859375 -12.472656 2.859375 -18.546875 C 2.859375 -24.628906 4.53125 -29.734375 7.875 -33.859375 C 11.226562 -37.984375 15.921875 -40.046875 21.953125 -40.046875 Z M 18.4375 -22.375 C 20.320312 -22.71875 22.0625 -23.46875 23.65625 -24.625 C 25.25 -25.78125 26.046875 -27.160156 26.046875 -28.765625 C 26.046875 -31.898438 24.503906 -33.46875 21.421875 -33.46875 C 18.535156 -33.46875 16.316406 -32.320312 14.765625 -30.03125 C 13.222656 -27.738281 12.375 -24.992188 12.21875 -21.796875 C 14.476562 -21.847656 16.550781 -22.039062 18.4375 -22.375 Z M 18.4375 -22.375 "/></g></g></g><g fill="#000000" fill-opacity="1"><g transform="translate(625.26785, 81.66542)"><g><path d="M 11.140625 -47.078125 L 16.15625 -47.078125 L 16.15625 -38.890625 L 26.4375 -38.890625 L 25.671875 -32.390625 L 16.15625 -32.390625 L 16.15625 -12.0625 C 16.15625 -9.789062 16.566406 -8.203125 17.390625 -7.296875 C 18.210938 -6.398438 19.488281 -5.953125 21.21875 -5.953125 C 22.945312 -5.953125 24.6875 -6.492188 26.4375 -7.578125 L 28.765625 -1.625 C 26.179688 0.175781 22.90625 1.078125 18.9375 1.078125 C 16.625 1.078125 14.664062 0.78125 13.0625 0.1875 C 11.46875 -0.402344 10.28125 -1.0625 9.5 -1.78125 C 8.726562 -2.5 8.132812 -3.550781 7.71875 -4.9375 C 7.3125 -6.332031 7.082031 -7.429688 7.03125 -8.234375 C 6.976562 -9.035156 6.953125 -10.207031 6.953125 -11.75 L 6.953125 -32.390625 L 1.46875 -32.390625 L 2.234375 -38.03125 C 4.660156 -38.238281 6.492188 -39.101562 7.734375 -40.625 C 8.972656 -42.144531 10.109375 -44.296875 11.140625 -47.078125 Z M 11.140625 -47.078125 "/></g></g></g><g fill="#000000" fill-opacity="1"><g transform="translate(654.409759, 81.66542)"><g><path d="M 21.953125 -40.046875 C 25.816406 -40.046875 28.882812 -39.101562 31.15625 -37.21875 C 33.425781 -35.34375 34.5625 -32.703125 34.5625 -29.296875 C 34.5625 -27.035156 34.070312 -25.039062 33.09375 -23.3125 C 32.113281 -21.582031 30.898438 -20.226562 29.453125 -19.25 C 28.015625 -18.269531 26.265625 -17.472656 24.203125 -16.859375 C 20.742188 -15.828125 16.851562 -15.3125 12.53125 -15.3125 C 12.675781 -12.570312 13.519531 -10.363281 15.0625 -8.6875 C 16.613281 -7.019531 18.988281 -6.1875 22.1875 -6.1875 C 25.382812 -6.1875 28.582031 -7.320312 31.78125 -9.59375 L 34.71875 -3.328125 C 33.6875 -2.398438 31.945312 -1.445312 29.5 -0.46875 C 27.050781 0.507812 24.253906 1 21.109375 1 C 14.816406 1 10.203125 -0.738281 7.265625 -4.21875 C 4.328125 -7.695312 2.859375 -12.472656 2.859375 -18.546875 C 2.859375 -24.628906 4.53125 -29.734375 7.875 -33.859375 C 11.226562 -37.984375 15.921875 -40.046875 21.953125 -40.046875 Z M 18.4375 -22.375 C 20.320312 -22.71875 22.0625 -23.46875 23.65625 -24.625 C 25.25 -25.78125 26.046875 -27.160156 26.046875 -28.765625 C 26.046875 -31.898438 24.503906 -33.46875 21.421875 -33.46875 C 18.535156 -33.46875 16.316406 -32.320312 14.765625 -30.03125 C 13.222656 -27.738281 12.375 -24.992188 12.21875 -21.796875 C 14.476562 -21.847656 16.550781 -22.039062 18.4375 -22.375 Z M 18.4375 -22.375 "/></g></g></g></g></g></svg>